<svg width="24" height="24" viewBox="0 0 24 24" fill="none" xmlns="http://www.w3.org/2000/svg">
<path d="M15.8601 4.39V19.39C15.8601 21.06 17.0001 22 18.2501 22C19.3901 22 20.6401 21.21 20.6401 19.39V4.5C20.6401 2.96 19.5001 2 18.2501 2C17.0001 2 15.8601 3.06 15.8601 4.39ZM9.61011 12V19.39C9.61011 21.07 10.7701 22 12.0001 22C13.1401 22 14.3901 21.21 14.3901 19.39V12.11C14.3901 10.57 13.2501 9.61 12.0001 9.61C10.7501 9.61 9.61011 10.67 9.61011 12ZM5.75011 17.23C7.07011 17.23 8.14011 18.3 8.14011 19.61C8.14011 20.2439 7.8883 20.8518 7.44009 21.3C6.99188 21.7482 6.38397 22 5.75011 22C5.11624 22 4.50833 21.7482 4.06012 21.3C3.61191 20.8518 3.36011 20.2439 3.36011 19.61C3.36011 18.3 4.43011 17.23 5.75011 17.23Z" fill="#D7D7D7"/>
</svg>
