<svg width="24" height="24" viewBox="0 0 24 24" fill="none" xmlns="http://www.w3.org/2000/svg">
<path d="M7.44 8.04194H16.56M7.44 10.7999H16.56M7.44 13.5584H13.032M2.75 19.3704V5.50544C2.74941 5.23683 2.80187 4.97074 2.90438 4.72246C3.00688 4.47417 3.15741 4.24858 3.34733 4.05862C3.53724 3.86866 3.7628 3.71807 4.01106 3.61551C4.25932 3.51294 4.52539 3.46041 4.79401 3.46094H19.206C19.4746 3.46041 19.7407 3.51294 19.9889 3.61551C20.2372 3.71807 20.4628 3.86866 20.6527 4.05862C20.8426 4.24858 20.9931 4.47417 21.0956 4.72246C21.1981 4.97074 21.2506 5.23683 21.25 5.50544V16.3039C21.2506 16.5726 21.1981 16.8386 21.0956 17.0869C20.9931 17.3352 20.8426 17.5608 20.6527 17.7508C20.4628 17.9407 20.2372 18.0913 19.9889 18.1939C19.7407 18.2964 19.4746 18.349 19.206 18.3484H6.40251L4.7105 20.0399C3.8465 20.9049 2.75 20.6219 2.75 19.3704Z" stroke="#D7D7D7" stroke-width="0.5" stroke-linecap="round" stroke-linejoin="round"/>
</svg>
