<svg width="44" height="44" viewBox="0 0 44 44" fill="none" xmlns="http://www.w3.org/2000/svg">
<path d="M11.7866 4.42384C12.0177 4.14797 12.1315 3.79248 12.1034 3.43367C12.0754 3.07487 11.9078 2.74135 11.6366 2.50473C11.3654 2.26811 11.0123 2.14724 10.653 2.16808C10.2937 2.18892 9.95691 2.34979 9.7149 2.61617L7.34623 5.32951C6.0031 6.86871 5.24383 8.83112 5.20123 10.8735L5.09673 15.8583C5.093 16.0389 5.12487 16.2184 5.19052 16.3867C5.25617 16.5549 5.35432 16.7086 5.47936 16.8389C5.60441 16.9693 5.75389 17.0737 5.91929 17.1462C6.08468 17.2188 6.26274 17.258 6.44331 17.2618C6.62388 17.2655 6.80341 17.2336 6.97167 17.168C7.13992 17.1023 7.29359 17.0042 7.42391 16.8791C7.55423 16.7541 7.65864 16.6046 7.73119 16.4392C7.80374 16.2738 7.843 16.0957 7.84673 15.9152L7.9494 10.9322C7.97881 9.53467 8.49862 8.192 9.4179 7.13901L11.7866 4.42384Z" fill="white"/>
<path fill-rule="evenodd" clip-rule="evenodd" d="M11.4346 14.1167C11.5577 12.1553 12.4237 10.3146 13.8563 8.96918C15.2888 7.6238 17.1803 6.87495 19.1456 6.87508H20.1667V5.50008C20.1667 5.01385 20.3599 4.54754 20.7037 4.20372C21.0475 3.8599 21.5138 3.66675 22.0001 3.66675C22.4863 3.66675 22.9526 3.8599 23.2964 4.20372C23.6402 4.54754 23.8334 5.01385 23.8334 5.50008V6.87508H24.8546C26.8198 6.87495 28.7113 7.6238 30.1439 8.96918C31.5765 10.3146 32.4424 12.1553 32.5656 14.1167L32.9707 20.5957C33.1274 23.0656 33.9566 25.4456 35.3687 27.4781C35.6609 27.898 35.8394 28.3864 35.8869 28.8958C35.9345 29.4052 35.8493 29.9182 35.6399 30.3849C35.4304 30.8517 35.1037 31.2563 34.6916 31.5594C34.2794 31.8624 33.7959 32.0537 33.2879 32.1146L27.0417 32.8626V34.8334C27.0417 36.1705 26.5106 37.4529 25.5651 38.3984C24.6196 39.3439 23.3372 39.8751 22.0001 39.8751C20.6629 39.8751 19.3806 39.3439 18.4351 38.3984C17.4896 37.4529 16.9584 36.1705 16.9584 34.8334V32.8626L10.7122 32.1127C10.2046 32.0517 9.72133 31.8604 9.30945 31.5574C8.89757 31.2545 8.57106 30.8501 8.36163 30.3837C8.15221 29.9172 8.06699 29.4045 8.11426 28.8954C8.16153 28.3863 8.33968 27.898 8.6314 27.4781C10.0435 25.4456 10.8728 23.0656 11.0294 20.5957L11.4346 14.1167ZM19.1456 9.62508C17.8798 9.62493 16.6615 10.1072 15.7388 10.9737C14.8161 11.8402 14.2584 13.0258 14.1791 14.2891L13.7757 20.7681C13.5872 23.7394 12.5893 26.6026 10.8901 29.0474C10.8689 29.0778 10.856 29.1131 10.8526 29.15C10.8491 29.1868 10.8552 29.2239 10.8704 29.2577C10.8855 29.2914 10.9091 29.3207 10.9389 29.3427C10.9687 29.3646 11.0037 29.3785 11.0404 29.3829L17.8916 30.2061C20.6214 30.5324 23.3787 30.5324 26.1086 30.2061L32.9597 29.3829C32.9965 29.3785 33.0314 29.3646 33.0612 29.3427C33.091 29.3207 33.1146 29.2914 33.1298 29.2577C33.1449 29.2239 33.151 29.1868 33.1476 29.15C33.1441 29.1131 33.1312 29.0778 33.1101 29.0474C31.4115 26.6024 30.4142 23.7393 30.2262 20.7681L29.8211 14.2891C29.7418 13.0258 29.184 11.8402 28.2613 10.9737C27.3386 10.1072 26.1204 9.62493 24.8546 9.62508H19.1456ZM22.0001 37.1251C20.7351 37.1251 19.7084 36.0984 19.7084 34.8334V33.4584H24.2917V34.8334C24.2917 36.0984 23.2651 37.1251 22.0001 37.1251Z" fill="white"/>
<path d="M32.3455 2.48429C32.0709 2.72404 31.9027 3.06305 31.8779 3.42679C31.8532 3.79053 31.9739 4.1492 32.2135 4.42395L34.5822 7.13729C35.5012 8.19102 36.0204 9.53438 36.0489 10.9323L36.1534 15.9135C36.1609 16.2781 36.313 16.6249 36.5762 16.8774C36.8394 17.1299 37.1921 17.2676 37.5568 17.26C37.9215 17.2525 38.2682 17.1004 38.5207 16.8372C38.7733 16.574 38.9109 16.2213 38.9034 15.8566L38.7989 10.8736C38.7563 8.83123 37.997 6.86883 36.6539 5.32962L34.2852 2.61629C34.0455 2.34163 33.7064 2.17344 33.3427 2.14868C32.979 2.12393 32.6203 2.24465 32.3455 2.48429Z" fill="white"/>
</svg>
