<svg width="24" height="24" viewBox="0 0 24 24" fill="none" xmlns="http://www.w3.org/2000/svg">
<path d="M19.4851 20.154L13.2231 13.892C12.7231 14.318 12.1481 14.6477 11.4981 14.881C10.8481 15.1144 10.1948 15.231 9.53811 15.231C7.93944 15.231 6.58477 14.6757 5.47411 13.565C4.36344 12.4537 3.80811 11.0987 3.80811 9.50004C3.80811 7.90138 4.36344 6.54671 5.47411 5.43604C6.58477 4.32538 7.93944 3.76971 9.53811 3.76904C11.1368 3.76838 12.4918 4.32404 13.6031 5.43604C14.7144 6.54804 15.2698 7.90271 15.2691 9.50004C15.2691 10.1947 15.1461 10.867 14.9001 11.517C14.6541 12.167 14.3308 12.723 13.9301 13.185L20.1921 19.446L19.4851 20.154ZM9.5391 14.23C10.8658 14.23 11.9858 13.7734 12.8991 12.86C13.8124 11.9467 14.2691 10.8264 14.2691 9.49904C14.2691 8.17171 13.8124 7.05171 12.8991 6.13904C11.9858 5.22638 10.8658 4.76971 9.5391 4.76904C8.21244 4.76838 7.09211 5.22504 6.17811 6.13904C5.26411 7.05304 4.80744 8.17304 4.80811 9.49904C4.80877 10.825 5.26544 11.945 6.17811 12.859C7.09077 13.773 8.21077 14.2297 9.53811 14.229" fill="#737373"/>
</svg>
